<svg width="419.7" height="81.001" viewBox="0 0 419.7 81.001" xmlns="http://www.w3.org/2000/svg"><g id="svgGroup" stroke-linecap="round" fill-rule="evenodd" font-size="9pt" stroke="#ffffff" stroke-width="0.25mm" fill="#ffffff" style="stroke:#ffffff;stroke-width:0.25mm;fill:#ffffff"><path d="M 363.2 3.001 L 363.2 23.401 L 363.2 42.401 Q 363.2 43.901 363.85 45.001 Q 364.5 46.101 365.55 46.851 Q 366.6 47.601 367.95 48.001 Q 369.3 48.401 370.7 48.401 Q 373.6 48.401 375.9 46.901 Q 378.2 45.401 378.2 42.501 L 378.2 33.001 L 378.2 23.501 L 378.2 13.601 L 378.2 3.001 L 419.7 3.001 L 419.7 18.601 L 419.7 34.651 L 419.7 50.301 Q 419.7 58.001 415.55 63.751 Q 411.4 69.501 404.4 73.351 Q 397.4 77.201 388.65 79.101 Q 379.9 81.001 370.7 81.001 Q 363.4 81.001 356.25 79.801 Q 349.1 78.601 342.85 76.101 Q 336.6 73.601 331.85 69.951 Q 327.1 66.301 324.4 61.351 Q 321.7 56.401 321.7 50.301 L 321.7 42.451 L 321.7 34.401 L 321.7 23.801 L 321.7 13.251 L 321.7 3.001 L 363.2 3.001 Z M 59.6 3.001 L 102.8 3.001 Q 100.6 10.501 98.35 18.001 L 93.85 33.001 L 89.35 48.001 L 84.85 63.001 Q 82.6 70.501 80.3 78.001 L 22.4 78.001 Q 18.7 65.501 14.95 53.001 Q 11.2 40.501 7.5 28.001 Q 3.8 15.501 0 3.001 L 44.6 3.001 Q 45.2 6.901 45.85 10.751 Q 46.5 14.601 47.1 18.501 L 48.3 26.301 L 49.5 34.101 Q 50.1 38.001 50.75 41.851 Q 51.4 45.701 52 49.601 L 52.1 49.601 L 52.15 49.601 L 52.2 49.601 Q 52.7 46.301 53.25 42.951 Q 53.8 39.601 54.3 36.301 Q 54.8 33.001 55.35 29.651 L 56.45 22.951 Q 57 19.601 57.5 16.301 Q 58 13.001 58.55 9.651 Q 59.1 6.301 59.6 3.001 Z M 158.8 81.001 Q 150.3 81.001 143.25 79.851 Q 136.2 78.701 130.5 76.651 Q 124.8 74.601 120.45 71.701 Q 116.1 68.801 112.95 65.251 Q 109.8 61.701 107.75 57.701 Q 105.7 53.701 104.75 49.301 Q 103.8 44.901 103.8 40.401 Q 103.8 34.501 105.35 29.201 Q 106.9 23.901 109.95 19.401 Q 113 14.901 117.55 11.351 Q 122.1 7.801 128.2 5.251 Q 134.3 2.701 141.95 1.351 Q 149.6 0.001 158.8 0.001 Q 177.2 0.001 189.4 5.201 Q 201.6 10.401 207.7 19.501 Q 213.8 28.601 213.8 40.401 Q 213.8 46.801 211.9 52.751 Q 210 58.701 205.9 63.851 Q 201.8 69.001 195.3 72.851 Q 188.8 76.701 179.75 78.851 Q 170.7 81.001 158.8 81.001 Z M 319.8 78.001 L 272.8 78.001 L 258.3 40.501 Q 260.3 35.801 262.2 31.101 Q 264.1 26.401 266.05 21.751 Q 268 17.101 269.95 12.401 Q 271.9 7.701 273.8 3.001 L 318.8 3.001 Q 317.1 6.501 314.8 11.101 L 310.15 20.401 L 305.8 29.101 Q 303.8 33.101 302.55 35.551 L 301.3 38.001 L 302.6 40.851 Q 303.9 43.701 306 48.301 Q 308.1 52.901 310.6 58.251 Q 313.1 63.601 315.5 68.801 Q 317.9 74.001 319.8 78.001 Z M 258.3 40.501 L 258.3 40.701 L 258.3 40.951 L 258.3 41.201 L 258.3 59.601 L 258.3 78.001 L 216.8 78.001 L 216.8 63.351 L 216.8 48.701 L 216.8 34.051 L 216.8 19.401 L 216.8 11.201 L 216.8 3.001 L 258.3 3.001 L 258.3 12.201 L 258.3 21.401 L 258.3 30.601 L 258.3 39.801 L 258.3 40.101 L 258.3 40.501 Z M 158.9 49.201 Q 154.3 49.201 151.5 47.901 Q 148.7 46.601 147.5 44.601 Q 146.3 42.601 146.3 40.501 Q 146.3 38.901 146.95 37.351 Q 147.6 35.801 149.05 34.551 Q 150.5 33.301 152.95 32.551 Q 155.4 31.801 158.9 31.801 Q 162.4 31.801 164.8 32.601 Q 167.2 33.401 168.6 34.651 Q 170 35.901 170.65 37.401 Q 171.3 38.901 171.3 40.401 Q 171.3 41.701 170.9 42.951 Q 170.5 44.201 169.55 45.351 Q 168.6 46.501 167.15 47.351 Q 165.7 48.201 163.65 48.701 Q 161.6 49.201 158.9 49.201 Z" vector-effect="non-scaling-stroke"/></g></svg>